<?xml version="1.0" encoding="UTF-8"?>
<svg id="Layer_2" data-name="Layer 2" xmlns="http://www.w3.org/2000/svg" viewBox="0 0 356.49 438.96">
  <defs>
    <style>
      .cls-1 {
        fill: #202153;
      }

      .cls-2 {
        fill: #d1b4d4;
      }
    </style>
  </defs>
  <g id="Layer_1-2" data-name="Layer 1">
    <g>
      <g>
        <path class="cls-2" d="M210.88,149.62c8.81.42,17.73,1.27,26.55,1.15,8.62-.12,17.26-2.71,22.09-10.39,8.54-13.57-.08-34.5-12.8-42.26-16.75-10.22-35.29,1.9-43.3,17.15-7.58,14.45-9.57,31.59-9.18,47.7.43,17.4,3.82,34.9,15.27,48.58,10.07,12.03,25.89,19.15,41.65,17.76s30.5-9.97,39-23.82c9.79-15.95,10.47-35.92,13.72-53.87,3.93-21.69,7.27-43.55,13.34-64.78,2.97-10.41,6.51-20.78,11.43-30.45.9-1.77,1.87-4.08,3.5-5.34.47-.36-.12-.54.68.2,3.34,3.11,4.06,8.64,5.21,12.83,3.17,11.63,21.26,6.69,18.08-4.98-2.18-7.99-4.49-16.5-11.13-22.01-7.32-6.07-17.45-6.47-24.87-.32-6.78,5.62-10.02,14.77-13.27,22.68-3.45,8.4-6.27,17.04-8.65,25.79-4.63,17.07-7.64,34.51-10.71,51.91-1.46,8.28-3.04,16.54-4.29,24.86s-2.33,16.14-4.75,23.92c-3.71,11.93-11.87,21.33-24.35,24.1-11.15,2.48-22.62-1.79-30.29-10.55-9.16-10.46-10.72-25.24-10.84-38.57s1.1-26.67,7.58-37.89c2.89-5.01,8.04-11.18,14.55-9.67,4.37,1.01,7.94,7.17,8.76,12.33s-.53,6.12-5.76,6.3c-9,.31-18.21-.7-27.2-1.13-12.06-.58-12.03,18.17,0,18.75h0Z"/>
        <path class="cls-2" d="M274.64,128.14c21.76-.56,43.42,2.46,65.12,3.39,12.06.52,12.04-18.23,0-18.75-21.71-.93-43.37-3.95-65.12-3.39-12.04.31-12.09,19.06,0,18.75h0Z"/>
      </g>
      <path class="cls-2" d="M105.03,131.5c2.46,30.84,3.52,61.77,3.2,92.71h18.75c-.46-18.45-1.1-37.27,3.27-55.35,1.92-7.96,4.68-15.59,8.85-22.66,2.87-4.86,7.05-11.81,13.46-11.54,12.07.5,12.04-18.25,0-18.75-21.31-.88-33.22,24.21-38.54,41.27-6.75,21.63-6.35,44.64-5.79,67.04.3,12.05,18.62,12.1,18.75,0,.32-30.94-.75-61.86-3.2-92.71-.4-5.05-4.02-9.38-9.38-9.38-4.76,0-9.78,4.3-9.38,9.38h0Z"/>
      <g>
        <path class="cls-2" d="M9.02,9.04C6.02,78.09,3.02,147.13.01,216.18c-.52,12.06,18.23,12.04,18.75,0,3-69.05,6.01-138.09,9.01-207.14.52-12.06-18.23-12.04-18.75,0h0Z"/>
        <path class="cls-2" d="M21.46,122.41c13.57-3.68,30.16-9.84,42.6-.09,8.98,7.03,13.62,18.26,15.96,29.11,4.25,19.63,1.46,51.12-21.94,57.39-14.47,3.88-31.79,1.4-46.2-1.68-11.77-2.51-16.8,15.56-4.98,18.08,17.03,3.63,35.45,5.53,52.7,2.43,16.81-3.02,29.12-15.64,35.45-30.98,11.09-26.9,5.93-66.21-16.25-86.33-7.94-7.21-17.28-11.3-28.04-11.94-11.64-.69-23.18,2.91-34.27,5.92s-6.7,21.24,4.98,18.08h0Z"/>
      </g>
      <path class="cls-2" d="M202.17,312.83c43.11,12.62,86.22,25.23,129.33,37.85,12.38,3.62,17.66-15.67,5.32-19.29-43.11-12.62-86.22-25.23-129.33-37.85-12.38-3.62-17.66,15.67-5.32,19.29h0Z"/>
      <g>
        <polygon class="cls-1" points="177.99 120.69 173.79 93.59 151.66 109.78 167.85 87.65 140.75 83.45 167.85 79.25 151.66 57.13 173.79 73.32 177.99 46.22 182.19 73.32 204.31 57.13 188.12 79.25 215.22 83.45 188.12 87.65 204.31 109.78 182.19 93.59 177.99 120.69"/>
        <path class="cls-2" d="M165.66,138.1c-3.23,34.33-4.96,68.84-6.46,103.29-1.62,37.08-3.53,74.64-.69,111.71,1.65,21.54,5.09,43.88,18.26,61.68,12.4,16.75,31.25,26.71,52.33,23.63,34.83-5.08,45.34-44.64,49.44-74.14,5.31-38.14,2.05-76.84,6.79-114.98.67-5.37-5.07-10-10-10-5.96,0-9.33,4.62-10,10-4.07,32.67-1.8,65.86-4.8,98.62-1.22,13.32-3.13,26.54-7.45,40.27-2.07,6.58-4.16,11.72-8.19,17.78-3.18,4.79-7.07,8.69-13.09,11.27,1.13-.48-1.99.63-2.57.79-.88.25-1.77.45-2.66.63-.28.06-2.56.37-1.28.23-3.83.44-7.73.28-11.46-.67-7.57-1.94-13.76-6.52-18.81-12.4-12.34-14.39-15.12-34.52-16.52-52.73-2.66-34.73-1.05-69.87.39-104.63,1.52-36.8,3.32-73.68,6.77-110.37.51-5.38-4.96-10-10-10-5.83,0-9.49,4.6-10,10h0Z"/>
      </g>
    </g>
  </g>
</svg>