<?xml version="1.0" encoding="UTF-8"?>
<svg id="Layer_2" data-name="Layer 2" xmlns="http://www.w3.org/2000/svg" viewBox="0 0 239.59 239.59">
  <defs>
    <style>
      .cls-1 {
        fill: #ecf4fb;
      }

      .cls-2 {
        fill: #202153;
      }

      .cls-3 {
        fill: #d1b4d4;
      }
    </style>
  </defs>
  <g id="Layer_1-2" data-name="Layer 1">
    <rect class="cls-1" width="239.59" height="239.59" rx="26.62" ry="26.62"/>
    <polygon class="cls-2" points="83.57 67.72 80.13 45.5 61.98 58.78 75.26 40.63 53.03 37.18 75.26 33.74 61.98 15.59 80.13 28.87 83.57 6.64 87.02 28.87 105.17 15.59 91.89 33.74 114.11 37.18 91.89 40.63 105.17 58.78 87.02 45.5 83.57 67.72"/>
    <path class="cls-3" d="M74.31,80.56c-2.11,22.59-3.15,45.27-3.06,67.96.07,19.58-.73,41.81,9.01,59.49,8.21,14.9,25.29,25.06,42.41,19.59,14.38-4.59,21.81-18.45,25.35-32.22,2.04-7.94,2.89-16.1,3.95-24.21,1.7-13.06,3.33-26.13,5-39.19.69-5.37-5.09-10-10-10-5.97,0-9.31,4.62-10,10-1.25,9.8-2.48,19.6-3.73,29.39-.58,4.57-1.2,9.14-1.78,13.71-.21,1.64-.2,1.72-.26,2.12-.23,1.66-.49,3.33-.78,4.98-.86,4.88-2.49,11.7-3.92,15.17-.95,2.3-2.18,4.58-3.63,6.6.65-.91-1.07,1.24-1.38,1.55-.35.36-.72.72-1.09,1.05-2.22,1.98.65-.32-.78.57-.38.24-2.89,1.45-1.74,1.02-.51.19-3.48.9-2.7.79-2.57.34-5.08.12-7.5-.87-5.2-2.13-8.71-7.05-11.05-11.96-2.88-6.04-3.82-13.07-4.41-19.67-.86-9.6-.92-19.29-.95-28.92-.05-22.36.99-44.71,3.06-66.97.5-5.38-4.96-10-10-10-5.83,0-9.5,4.6-10,10h0Z"/>
    <path class="cls-3" d="M104.78,164.36c24.19,7.08,48.38,14.16,72.57,21.24,12.38,3.62,17.66-15.67,5.32-19.29-24.19-7.08-48.38-14.16-72.57-21.24-12.38-3.62-17.66,15.67-5.32,19.29h0Z"/>
  </g>
</svg>